<?xml version="1.0" encoding="UTF-8"?>
<!DOCTYPE svg PUBLIC "-//W3C//DTD SVG 1.1//EN" "http://www.w3.org/Graphics/SVG/1.1/DTD/svg11.dtd">
<!-- Creator: CorelDRAW 2021 (64-Bit) -->
<svg xmlns="http://www.w3.org/2000/svg" xml:space="preserve" width="250mm" height="74.1962mm" version="1.1" style="shape-rendering:geometricPrecision; text-rendering:geometricPrecision; image-rendering:optimizeQuality; fill-rule:evenodd; clip-rule:evenodd"
viewBox="0 0 44234.95 13128.26"
 xmlns:xlink="http://www.w3.org/1999/xlink"
 xmlns:xodm="http://www.corel.com/coreldraw/odm/2003">
 <defs>
  <style type="text/css">
   <![CDATA[
    .fil0 {fill:#2E3338;fill-rule:nonzero}
    .fil1 {fill:#35D07F;fill-rule:nonzero}
    .fil3 {fill:#5EA33B;fill-rule:nonzero}
    .fil2 {fill:#FBCC5C;fill-rule:nonzero}
   ]]>
  </style>
 </defs>
 <g id="Layer_x0020_1">
  <metadata id="CorelCorpID_0Corel-Layer"/>
  <g id="_2380792341008">
   <path class="fil0" d="M33738.24 11595.04l1186.81 -375.96 0 -9840.59 -1186.81 375.96 0 9840.59zm-13710.52 -5978.09c744.51,0 1437.41,331.71 1879.68,884.54l486.5 -1120.42c-633.92,-611.8 -1481.61,-899.3 -2366.18,-899.3 -2049.19,0 -3457.12,1614.31 -3442.4,3398.15 14.72,1931.24 1533.22,3508.72 3442.4,3508.72 965.63,0 1702.78,-287.49 2255.59,-692.9l0 -1371.07c-582.31,582.31 -1422.63,928.79 -2152.42,928.79 -1105.7,0 -2351.42,-899.3 -2351.42,-2373.54 0,-1363.67 1076.22,-2262.97 2248.25,-2262.97zm7909.35 -1127.78c-2041.85,0 -3236,1614.33 -3236,3398.15 0,1931.26 1533.22,3508.73 3442.4,3508.73 965.63,0 1702.78,-287.49 2255.59,-692.9l0 -1371.07c-582.31,582.31 -1422.63,928.79 -2159.78,928.79 -980.39,0 -2056.55,-611.8 -2277.73,-1894.42l5211.51 0 0 -457c-7.36,-1901.82 -1260.5,-3420.28 -3236,-3420.28zm12840.77 0c-1909.18,0 -3457.12,1547.99 -3457.12,3457.12 0,1909.13 1547.99,3457.12 3457.12,3457.12 1909.16,0 3457.1,-1547.99 3457.1,-3457.12 0,-1909.13 -1555.34,-3457.12 -3457.1,-3457.12zm-12826.01 1127.78c928.79,0 1909.18,582.31 1990.24,1702.78l-3980.51 0c81.09,-1120.42 1061.5,-1702.78 1990.27,-1702.78zm12826.01 4643.93c-1282.62,0 -2321.95,-1039.38 -2321.95,-2321.95 0,-1282.6 1039.38,-2321.93 2321.95,-2321.93 1282.6,0 2321.93,1039.38 2321.93,2321.93 0,1289.93 -1039.38,2321.95 -2321.93,2321.95z"/>
   <path class="fil1" d="M7946.24 8978.26c2100.81,0 3803.59,-1702.78 3803.59,-3803.59 0,-2100.82 -1702.78,-3803.6 -3803.59,-3803.6 -2100.81,0 -3803.59,1702.78 -3803.59,3803.6 7.36,2100.81 1710.12,3803.59 3803.59,3803.59zm0 1385.79c-2860.04,0 -5182.02,-2321.95 -5182.02,-5182.04 0,-2860.04 2321.93,-5182.02 5182.02,-5182.02 2860.09,0 5182.02,2321.93 5182.02,5182.02 7.31,2860.09 -2314.62,5182.04 -5182.02,5182.04z"/>
   <path class="fil2" d="M5182.02 11742.49c2100.81,0 3803.59,-1702.78 3803.59,-3803.6 0,-2100.81 -1702.78,-3803.59 -3803.59,-3803.59 -2100.81,0 -3803.59,1702.78 -3803.59,3803.59 0,2100.82 1710.14,3803.6 3803.59,3803.6zm0 1385.77c-2860.04,0 -5182.02,-2321.93 -5182.02,-5182.02 0,-2860.09 2321.93,-5182.02 5182.02,-5182.02 2860.04,0 5182.02,2321.93 5182.02,5182.02 0,2860.09 -2314.62,5182.02 -5182.02,5182.02z"/>
   <path class="fil3" d="M8115.75 10356.69c361.19,-434.88 619.2,-943.5 751.87,-1489.02 545.45,-140.07 1054.08,-390.68 1489,-751.87 -22.12,633.92 -154.79,1260.48 -405.39,1842.79 -575,243.31 -1201.56,383.32 -1835.48,398.1zm-3855.16 -6103.4c-545.45,140.07 -1054.08,390.68 -1489,751.87 22.12,-633.92 154.79,-1260.48 405.39,-1842.79 582.31,-243.26 1208.87,-383.32 1842.79,-405.4 -361.13,442.24 -619.09,950.86 -759.18,1496.33z"/>
  </g>
 </g>
</svg>
